<?xml version="1.0" standalone="no"?>
<!DOCTYPE svg PUBLIC "-//W3C//DTD SVG 20010904//EN"
 "http://www.w3.org/TR/2001/REC-SVG-20010904/DTD/svg10.dtd">
<svg version="1.0" xmlns="http://www.w3.org/2000/svg"
 width="700.000000pt" height="700.000000pt" viewBox="0 0 700.000000 700.000000"
 preserveAspectRatio="xMidYMid meet">
<metadata>
Created by potrace 1.11, written by Peter Selinger 2001-2013
</metadata>
<g transform="translate(0.000000,700.000000) scale(0.100000,-0.100000)"
fill="#000000" stroke="none">
<path d="M0 3500 l0 -3500 3500 0 3500 0 0 3500 0 3500 -3500 0 -3500 0 0
-3500z m6250 5 l0 -2755 -2755 0 -2755 0 0 2755 0 2755 2755 0 2755 0 0 -2755z"/>
<path d="M2545 4769 c-279 -30 -465 -171 -556 -419 -96 -265 -46 -620 128
-899 74 -118 178 -218 418 -401 368 -282 527 -424 640 -573 66 -88 127 -214
145 -295 7 -34 16 -62 20 -62 4 0 15 30 24 67 35 145 123 287 269 436 l90 92
18 94 17 95 -274 269 c-151 148 -274 272 -274 276 0 3 172 31 383 61 l382 55
177 350 176 350 50 -105 c27 -58 89 -186 137 -285 48 -99 96 -200 107 -225
l20 -45 20 45 c71 160 96 416 60 592 -43 207 -161 371 -327 456 -115 58 -307
89 -453 72 -284 -32 -484 -204 -578 -495 -12 -38 -25 -63 -27 -55 -3 8 -13 40
-22 70 -55 176 -192 345 -335 413 -132 63 -273 84 -435 66z"/>
<path d="M4197 3741 c-89 -182 -143 -281 -154 -284 -10 -3 -152 -22 -315 -43
-164 -21 -298 -41 -298 -45 0 -4 101 -106 224 -226 l225 -218 -15 -75 c-29
-152 -95 -542 -92 -545 2 -2 129 60 284 137 l280 141 274 -149 c204 -111 276
-146 278 -134 1 8 -20 150 -48 315 l-50 300 83 80 c45 44 148 144 230 222
l147 142 -32 6 c-18 3 -107 17 -198 30 -206 32 -349 54 -375 60 -15 3 -56 76
-160 285 -77 154 -142 280 -146 280 -3 0 -67 -126 -142 -279z"/>
</g>
</svg>
